<?xml version="1.0" encoding="UTF-8" standalone="no"?>
<svg
   viewBox="0 0 152.7 100.69"
   version="1.1"
   id="svg1053"
   sodipodi:docname="logo.svg"
   inkscape:version="1.2.1 (9c6d41e410, 2022-07-14, custom)"
   xmlns:inkscape="http://www.inkscape.org/namespaces/inkscape"
   xmlns:sodipodi="http://sodipodi.sourceforge.net/DTD/sodipodi-0.dtd"
   xmlns="http://www.w3.org/2000/svg"
   xmlns:svg="http://www.w3.org/2000/svg">
  <defs
     id="defs1057">
    <rect
       x="191.27647"
       y="413.1572"
       width="469.99365"
       height="251.39195"
       id="rect113" />
  </defs>
  <sodipodi:namedview
     id="namedview1055"
     pagecolor="#ffffff"
     bordercolor="#000000"
     borderopacity="0.25"
     inkscape:showpageshadow="2"
     inkscape:pageopacity="0.0"
     inkscape:pagecheckerboard="0"
     inkscape:deskcolor="#d1d1d1"
     showgrid="false"
     inkscape:zoom="17.079241"
     inkscape:cx="80.155789"
     inkscape:cy="28.953278"
     inkscape:window-width="1704"
     inkscape:window-height="1446"
     inkscape:window-x="1362"
     inkscape:window-y="309"
     inkscape:window-maximized="0"
     inkscape:current-layer="svg1053" />
  <path
     d="M1.96 0C.88 0 0 .85 0 1.88v88.3c0 1 .88 1.86 1.94 1.86h26.1v-1.65H1.96c-.15 0-.25-.1-.25-.23V1.87c0-.14.1-.22.24-.22h148.8c.15 0 .24.08.24.23v88.3c0 .13-.1.22-.24.22h-27.4v1.64h27.4c1.07 0 1.95-.86 1.95-1.88V1.87c0-1.02-.88-1.87-1.94-1.87H1.96z"
     white-space="normal"
     style="text-decoration-color:#000000;isolation:auto;mix-blend-mode:normal;text-indent:0;block-progression:tb;text-decoration-line:none;text-transform:none;text-decoration-style:solid"
     color="#000"
     solid-color="#000000"
     id="path1049" />
  <text
     xml:space="preserve"
     transform="matrix(0.32857867,0,0,0.33126859,-25.879126,-55.966041)"
     id="text111"
     style="font-size:48px;white-space:pre;shape-inside:url(#rect113);display:inline;fill:#1a1a1a"
     x="333.77344"
     y="0"><tspan
       x="311.05469"
       y="456.83026"
       id="tspan728"><tspan
         style="font-family:'Liberation Mono';-inkscape-font-specification:'Liberation Mono';text-align:center;text-anchor:middle"
         id="tspan726">fostercs</tspan></tspan></text>
  <path
     d="m 96.964165,18.446322 c 0,-0.31353 -0.11234,-0.615642 -0.31002,-0.87108 l 0.01,-0.01181 -0.11234,-0.117719 -0.18837,-0.196461 -0.0162,0.02283 c -0.30659,-0.228981 -0.68823,-0.362881 -1.09195,-0.362881 L 56.806931,16.90889 c -0.395373,0 -0.772108,0.12953 -1.075267,0.352291 l -0.01673,-0.02028 -0.178566,0.177956 -0.125091,0.123821 0.01134,0.01181 c -0.207495,0.260262 -0.326216,0.568102 -0.326216,0.890018 v 25.640355 c 0,0.313097 0.113307,0.615642 0.311497,0.871081 l -0.0099,0.01181 0.112321,0.117719 0.188367,0.195476 0.01673,-0.02284 c 0.3061,0.229001 0.687746,0.362428 1.091455,0.362428 h 38.447204 c 0.39439,0 0.77064,-0.12953 1.07526,-0.351877 l 0.0177,0.02028 0.17561,-0.176184 c 0,0 0.001,-3.35e-4 0.001,-0.0013 l 0.12517,-0.124215 -0.01,-0.01378 c 0.2075,-0.260281 0.32573,-0.567669 0.32573,-0.889584 z M 56.806628,17.309705 h 38.447157 c 0.31003,0 0.60975,0.103545 0.8403,0.288018 l -0.42578,0.551802 -0.70443,0.91114 c -0.31836,-0.399417 -0.83637,-0.642079 -1.37357,-0.642079 h -0.001 c -0.0676,-0.0039 -6.846925,-0.403394 -17.459188,-0.403394 h -0.04913 -0.04898 c -10.611915,0 -17.391397,0.399437 -17.444142,0.40296 -0.546467,0 -1.028664,0.235596 -1.342558,0.59452 l -0.721635,-0.836749 -0.521931,-0.604205 c 0.225164,-0.168704 0.510654,-0.262033 0.805965,-0.262033 z m 1.878782,26.315664 c -0.414019,0 -0.803991,-0.183665 -1.040933,-0.490601 -0.147656,-0.190751 -0.225164,-0.413532 -0.225164,-0.644737 V 19.955644 c 0,-0.19774 0.05985,-0.394575 0.172172,-0.569421 l 5.02e-4,-3.15e-4 c 0.22663,-0.349672 0.645547,-0.56633 1.108129,-0.56633 0.06671,-0.0039 6.811638,-0.401642 17.380095,-0.402961 10.56768,0.0013 17.313514,0.398551 17.393894,0.402961 0.69754,0 1.26659,0.509951 1.26659,1.137089 v 22.534368 c 0,0.6258 -0.56903,1.135731 -1.27839,1.135731 -0.0741,0.0039 -7.590104,0.381386 -17.381341,0.382705 -9.791756,-0.0013 -17.308514,-0.379181 -17.395163,-0.383138 z m -3.004593,0.97809 c -0.09124,-0.158468 -0.13931,-0.336011 -0.13931,-0.516565 V 18.446539 c 0,-0.196854 0.05788,-0.390185 0.165313,-0.560189 l 1.141988,1.323354 0.151094,0.174806 c -0.07898,0.176579 -0.125091,0.36861 -0.125091,0.57074 v 22.534387 c 0,0.196855 0.04513,0.38491 0.12115,0.559283 h -0.113808 z m 39.573608,0.620072 H 56.807256 c -0.311497,0 -0.608767,-0.103546 -0.839806,-0.288018 l 1.148353,-1.486349 h 0.144217 c 0.312477,0.347901 0.783397,0.575583 1.313676,0.575583 h 4.99e-4 c 0.07457,0.0039 7.627896,0.382704 17.456688,0.382704 h 0.04898 0.04913 c 9.828543,0 17.380082,-0.379633 17.442882,-0.382704 0.47975,0 0.93399,-0.180516 1.25529,-0.491034 l 1.23225,1.42682 c -0.22516,0.168311 -0.51065,0.262919 -0.80448,0.262919 z m 0.12899,-1.700782 -0.28697,-0.33294 c 0.12361,-0.215792 0.18837,-0.455364 0.18837,-0.700211 V 19.955211 c 0,-0.16772 -0.0305,-0.333353 -0.0907,-0.491034 l 0.22908,-0.29725 0.95705,-1.237544 c 0.0907,0.158468 0.1384,0.33601 0.1384,0.516565 v 25.640355 c 0,0.19774 -0.0578,0.390185 -0.16433,0.559283 z"
     id="path244"
     style="fill:#000000;stroke-width:0.118986" />
  <path
     d="m 94.797945,67.117787 c 0,0.370814 -0.33554,0.671155 -0.74809,0.671155 h -2.67292 c -0.41354,0 -0.74808,-0.301226 -0.74808,-0.671155 v -0.07835 c 0,-0.370815 0.33553,-0.670269 0.74808,-0.670269 h 2.67292 c 0.41354,0 0.74809,0.30034 0.74809,0.670269 z"
     id="path246"
     style="fill:#000000;stroke-width:0.118986" />
  <path
     d="m 58.171669,54.401903 c -0.04905,0.0374 -0.128027,0.08327 -0.193279,0.09173 -0.185425,0.02638 -0.266366,-0.08622 -0.440015,-0.100396 -0.247729,-0.02165 -0.35564,0.126381 -0.58374,0.100396 -0.241349,-0.02736 -0.389005,-0.279198 -0.491037,-0.450954 -0.173157,-0.285813 -0.291869,-0.678202 -0.143232,-1.010256 0.08388,-0.187602 0.312477,-0.394142 0.602875,-0.40426 0.224185,-0.0098 0.327687,0.114963 0.542049,0.109648 0.146188,-0.002 0.316397,-0.111814 0.512613,-0.109648 0.236439,0.0013 0.647017,0.125002 0.684792,0.505581 0.06572,0.667631 -0.317865,1.135731 -0.491037,1.268293 z"
     fill-rule="evenodd"
     id="path248"
     style="fill:#000000;stroke-width:0.118986" />
  <path
     d="M 98.812685,10.940818 H 53.001596 c -1.066929,0 -1.934664,0.778598 -1.934664,1.73596 v 50.181495 c 0,0.720467 0.490044,1.338334 1.187107,1.601233 v 5.388611 c 0,0.59011 0.535178,1.07014 1.192017,1.07014 h 44.921989 c 0.65832,0 1.1935,-0.480463 1.1935,-1.07014 v -5.388159 c 0.694605,-0.263351 1.185625,-0.881218 1.185625,-1.601233 V 12.677231 c 0,-0.957421 -0.867775,-1.73596 -1.934165,-1.73596 z m 0,52.85454 H 53.001596 c -0.402731,0 -0.749051,-0.209197 -0.922714,-0.50997 l 0.0069,-0.01575 0.758872,-1.722318 c 0.318367,0.364201 0.807922,0.584835 1.344068,0.584835 h 43.438913 c 0.48219,0 0.93398,-0.181894 1.25383,-0.490601 l 0.80104,1.733834 c -0.18738,0.252328 -0.50573,0.420127 -0.86875,0.420127 z M 52.781834,14.706307 c -0.198175,0.256304 -0.306588,0.563692 -0.306588,0.878147 v 45.011254 c 0,0.167326 0.03041,0.33294 0.09124,0.492352 l -0.609747,1.383315 V 12.92011 Z m 46.111221,45.889499 c 0,0.191146 -0.0534,0.379634 -0.15403,0.543003 -0.22221,0.365519 -0.64997,0.592768 -1.11255,0.592768 H 54.187566 c -0.52046,0 -0.981572,-0.28097 -1.17534,-0.715191 -0.06132,-0.136617 -0.09124,-0.27788 -0.09124,-0.421013 V 15.5841 c 0,-0.262466 0.102043,-0.51877 0.286971,-0.721786 0.24282,-0.263785 0.599928,-0.415284 0.979615,-0.415284 h 43.438903 c 0.38066,0 0.7363,0.150987 0.97815,0.415284 l 0.002,4.52e-4 c 0.18445,0.201245 0.28697,0.458435 0.28697,0.720901 z m -0.20112,-46.213049 c -0.29973,-0.215359 -0.67303,-0.334712 -1.06595,-0.334712 H 54.188326 c -0.394391,0 -0.770638,0.120672 -1.070847,0.338236 L 52.10843,12.20104 c 0.181986,-0.273923 0.512613,-0.460206 0.893768,-0.460206 h 45.811097 c 0.35859,0 0.67449,0.163389 0.86286,0.410441 z m 0.57982,47.05972 -0.0923,-0.198174 c 0.10253,-0.199925 0.15844,-0.422311 0.15844,-0.646922 V 15.584986 c 0,-0.314869 -0.10837,-0.623143 -0.30806,-0.879447 l 0.82558,-1.875195 v 49.878221 z m -0.60191,8.406998 c 0,0.148822 -0.13583,0.27038 -0.30216,0.27038 H 53.445691 c -0.165796,0 -0.301675,-0.120672 -0.301675,-0.27038 v -5.252979 h 45.526019 z"
     id="path250"
     style="fill:#000000;stroke-width:0.118986" />
  <path
     d="m 94.154975,51.612733 h -4.53653 c -0.53468,0 -0.9698,0.390618 -0.9698,0.87108 v 0.256738 l -11.202993,3.35e-4 h -0.808424 v 0.0098 c -0.341903,0.04232 -0.607771,0.30916 -0.607771,0.635052 0,0.325873 0.265883,0.592315 0.607771,0.635033 v 0.0098 h 12.012357 v 0.0435 c 0,0.480463 0.43511,0.8711 0.9698,0.8711 h 4.53653 c 0.53469,0 0.9698,-0.390637 0.9698,-0.8711 v -1.588043 c -0.001,-0.48003 -0.43609,-0.8711 -0.97077,-0.8711 z"
     id="path252"
     style="fill:#000000;stroke-width:0.118986" />
  <rect
     style="fill:#333333"
     id="rect564"
     width="36.067177"
     height="23.537346"
     x="57.965107"
     y="19.614456" />
  <text
     xml:space="preserve"
     style="font-size:13.3333px;font-family:'Liberation Mono';-inkscape-font-specification:'Liberation Mono';text-align:center;text-anchor:middle;fill:#ffffff"
     x="76.467102"
     y="35.188919"
     id="text638"><tspan
       sodipodi:role="line"
       id="tspan636"
       x="76.467102"
       y="35.188919"
       style="font-size:13.3333px;fill:#ffffff">101</tspan></text>
</svg>
